:FULLY-SPECIFIED
:FORCE-ALL-JOINTS-BE-3DOF
:DEGREES
176
root -1.39265 17.1751 4.84495 1.64684 16.2625 3.37679
lfemur -7.04166 -1.44437 -29.4428
ltibia 39.6828 0 0
lfoot -3.27849 -1.79435 -2.00921
ltoes 8.91911 0 0
rfemur -27.9166 1.73469 15.6006
rtibia 46.8824 0 0
rfoot -10.4399 -5.55687 -0.0106616
rtoes -6.5987 0 0
lowerback 8.24249 -0.877706 -4.44043
upperback 1.09709 -1.48492 2.01473
thorax -3.31853 -0.674394 4.76357
lowerneck -15.4059 -2.91126 -9.43138
upperneck 21.8151 -2.50973 3.80411
head 9.63533 -1.50738 2.57942
lclavicle 3.37139e-14 -8.26946e-15 6.33087e-30
lhumerus -30.3768 7.05915 86.611
lradius 31.6118 0 0
lwrist -6.1263 0 0
lhand -14.5474 24.9561 -0.0120791
lfingers 7.12502 0 0
lthumb 11.6011 54.6131 -0.0119836
rclavicle 3.37139e-14 -8.26946e-15 6.33087e-30
rhumerus -38.1567 -14.9292 -76.2718
rradius 31.3854 0 0
rwrist 4.31446 0 0
rhand -16.0459 12.3997 -0.00314735
rfingers 7.12502 0 0
rthumb 10.1555 -17.3294 -0.0019852
177
root -1.35285 17.184 5.02937 1.79372 16.3425 3.61421
lfemur -6.65733 -1.49707 -29.6958
ltibia 39.7666 0 0
lfoot -4.17494 -1.36697 -1.80965
ltoes 8.93103 0 0
rfemur -28.2412 2.17426 15.248
rtibia 45.1823 0 0
rfoot -10.2989 -5.38974 -0.0359087
rtoes -6.54113 0 0
lowerback 8.27993 -0.846784 -4.73281
upperback 1.13059 -1.47515 1.94961
thorax -3.29925 -0.66706 4.85935
lowerneck -15.4165 -2.9862 -9.51896
upperneck 21.8237 -2.61836 3.92674
head 9.65133 -1.55074 2.62438
lclavicle 8.8459e-16 2.14688e-15 1.52985e-30
lhumerus -30.2296 5.75727 87.0447
lradius 32.5363 0 0
lwrist -4.91563 0 0
lhand -15.2969 26.0417 -0.00343555
lfingers 7.12502 0 0
lthumb 10.8784 55.7393 -0.00342457
rclavicle 8.8459e-16 2.14688e-15 1.52985e-30
rhumerus -38.1464 -14.9104 -76.4047
rradius 31.461 0 0
rwrist 4.67813 0 0
rhand -15.4617 12.7044 0.00707964
rfingers 7.12502 0 0
rthumb 10.7192 -16.9966 0.00786592
178
root -1.30931 17.191 5.20804 2.02925 16.3175 3.75658
lfemur -6.28123 -1.65966 -29.8421
ltibia 39.7975 0 0
lfoot -5.52275 -1.19081 -1.69986
ltoes 9.24656 0 0
rfemur -28.5517 2.7004 14.9588
rtibia 43.2575 0 0
rfoot -10.1408 -5.01404 -0.0602207
rtoes -2.47481 0 0
lowerback 8.31725 -0.776132 -4.85202
upperback 1.13543 -1.39948 1.86406
thorax -3.321 -0.626943 4.82862
lowerneck -15.3033 -3.00416 -9.48066
upperneck 21.6637 -2.69834 4.071
head 9.57984 -1.56639 2.65642
lclavicle -4.02539e-14 9.93924e-15 2.83869e-30
lhumerus -30.0633 4.48806 87.3791
lradius 33.326 0 0
lwrist -4.15865 0 0
lhand -16.002 26.3647 -0.00120927
lfingers 7.12502 0 0
lthumb 10.1982 56.0972 -0.00121937
rclavicle -4.02539e-14 9.93924e-15 2.83869e-30
rhumerus -38.1118 -15.0298 -76.5534
rradius 31.3657 0 0
rwrist 5.04716 0 0
rhand -15.2535 12.8169 0.00912191
rfingers 7.12502 0 0
rthumb 10.92 -16.8745 0.00967695
179
root -1.27269 17.1902 5.38752 2.19108 16.2799 3.61786
lfemur -6.07941 -1.74024 -29.7311
ltibia 39.7724 0 0
lfoot -6.94729 -1.11705 -1.55608
ltoes 7.80378 0 0
rfemur -28.7633 3.25958 14.9628
rtibia 41.1638 0 0
rfoot -9.73162 -4.77267 -0.0643325
rtoes 1.00154 0 0
lowerback 8.39279 -0.7553 -4.75512
upperback 1.07561 -1.36923 1.89282
thorax -3.42825 -0.60744 4.80332
lowerneck -15.2452 -2.97353 -9.36957
upperneck 21.5894 -2.67511 4.01076
head 9.53743 -1.55291 2.61915
lclavicle -1.72049e-14 7.23578e-15 5.70332e-30
lhumerus -30.1149 3.41111 87.6285
lradius 34.3117 0 0
lwrist -3.3393 0 0
lhand -15.9666 26.8607 0.000665691
lfingers 7.12502 0 0
lthumb 10.2324 56.5912 0.000523054
rclavicle -1.72049e-14 7.23578e-15 5.70332e-30
rhumerus -38.0063 -14.6749 -76.8351
rradius 31.2483 0 0
rwrist 5.14101 0 0
rhand -15.5343 12.7073 0.00375962
rfingers 7.12502 0 0
rthumb 10.6492 -16.9995 0.00424211
180
root -1.23523 17.1986 5.56936 2.29984 16.3903 3.37177
lfemur -5.85654 -1.80854 -29.4957
ltibia 39.6691 0 0
lfoot -8.21809 -0.715016 -1.30191
ltoes 7.04733 0 0
rfemur -28.8434 3.65377 15.0659
rtibia 38.9688 0 0
rfoot -8.89986 -4.90937 -0.0493867
rtoes -0.193882 0 0
lowerback 8.43181 -0.846812 -4.59559
upperback 1.04084 -1.47445 2.01934
thorax -3.46918 -0.659328 4.85908
lowerneck -15.1861 -2.9462 -9.27821
upperneck 21.505 -2.61059 3.77496
head 9.48832 -1.54228 2.52941
lclavicle -1.75129e-14 -1.36764e-14 2.37293e-30
lhumerus -30.0804 3.03006 87.731
lradius 35.0929 0 0
lwrist -2.88004 0 0
lhand -15.5267 26.8721 -0.00164727
lfingers 7.12502 0 0
lthumb 10.6566 56.5811 -0.00171849
rclavicle -1.75129e-14 -1.36764e-14 2.37293e-30
rhumerus -37.7508 -14.1306 -77.0641
rradius 31.1183 0 0
rwrist 5.26699 0 0
rhand -15.6712 12.5782 0.00152761
rfingers 7.12502 0 0
rthumb 10.5172 -17.1356 0.00203858
181
root -1.18831 17.1966 5.75515 2.56304 16.6238 3.42506
lfemur -5.50728 -1.8202 -29.5174
ltibia 39.4728 0 0
lfoot -9.48156 -0.36985 -1.08925
ltoes 6.19841 0 0
rfemur -28.8742 3.5494 14.9188
rtibia 36.7268 0 0
rfoot -7.65024 -4.89986 -0.0324339
rtoes -1.38921 0 0
lowerback 8.32045 -0.9608 -4.69648
upperback 1.06573 -1.6294 2.04826
thorax -3.34824 -0.739851 4.95893
lowerneck -15.1725 -2.92178 -9.21207
upperneck 21.4074 -2.58002 3.70407
head 9.44759 -1.53038 2.49561
lclavicle -3.85344e-14 2.44108e-14 -1.73638e-30
lhumerus -29.7319 2.90871 87.7534
lradius 35.5175 0 0
lwrist -2.78481 0 0
lhand -15.4044 26.3724 -0.00306971
lfingers 7.12502 0 0
lthumb 10.7746 56.0756 -0.00303956
rclavicle -3.85344e-14 2.44108e-14 -1.73638e-30
rhumerus -37.6107 -13.8868 -77.2303
rradius 31.1112 0 0
rwrist 5.62065 0 0
rhand -15.7003 12.6198 0.00269406
rfingers 7.12502 0 0
rthumb 10.4892 -17.0961 0.00303108
